<svg width="144" height="118" viewBox="0 0 144 118" fill="none" xmlns="http://www.w3.org/2000/svg">
<path d="M7.05227e-06 74.8394C7.05227e-06 105.652 18.981 119.598 41.7222 117.855C83.1947 114.676 144 92.2427 144 67.6405C144 46.635 95.4783 0 57.2893 0C21.1318 0 7.05227e-06 36.4695 7.05227e-06 74.8394Z" fill="#4531E1"/>
<path fill-rule="evenodd" clip-rule="evenodd" d="M69.3864 69.7721C68.9309 69.4539 68.359 69.5245 67.9659 69.915L65.4212 72.4598C64.1436 73.7374 62.1616 73.8962 60.6906 72.8404C57.9488 70.8702 55.7604 68.9783 53.3916 66.6088C51.0227 64.2394 49.1303 62.0514 47.1601 59.3096C46.1044 57.8386 46.2637 55.8544 47.5408 54.5789L50.0855 52.034C50.4785 51.6431 50.5471 51.0711 50.2284 50.6136L46.451 45.1917C46.1528 44.7647 45.7619 44.513 45.226 44.4929C44.6819 44.4727 44.1764 44.7126 43.8097 45.1376L39.629 49.9812C38.3999 51.4058 38.1967 53.3178 39.0931 54.9719C40.6889 57.9195 42.4476 60.7259 44.3111 63.2908C47.9152 68.249 51.7535 72.0874 56.7094 75.6896C59.2743 77.5531 62.0806 79.3119 65.0282 80.9077C66.6822 81.8041 68.5941 81.6009 70.0187 80.3718L74.8622 76.1914C75.6962 75.4719 75.771 74.2232 74.808 73.5501L69.3864 69.7721ZM75.0334 42.1399C75.5291 41.6442 76.3331 41.6442 76.8303 42.1399C77.326 42.6356 77.326 43.4396 76.8303 43.9369L70.994 49.7734C70.4983 50.269 69.6943 50.269 69.1971 49.7734L65.9756 46.5518C65.48 46.0562 65.48 45.2521 65.9756 44.7549C66.4713 44.2592 67.2753 44.2592 67.7725 44.7549L70.0976 47.08L75.0355 42.142L75.0334 42.1399ZM76.7581 56.9122L74.6022 61.5001C73.3247 64.2141 69.4807 64.2141 68.2037 61.5001L66.0458 56.9122H62.7036C60.0041 56.9122 57.8039 54.7119 57.8039 52.0124V39.8999C57.8039 37.2003 60.0041 35 62.7036 35H80.1003C82.7998 35 85 37.2003 85 39.8999V52.0103C85 54.7099 82.7998 56.9102 80.1003 56.9102H76.7581V56.9122ZM72.3076 60.4278C71.9492 61.1932 70.8552 61.1932 70.4942 60.4278L67.9917 55.105C67.7782 54.6454 67.3207 54.3757 66.8452 54.3757L62.7011 54.3715C61.4034 54.3695 60.342 53.3095 60.342 52.0124L60.344 39.8999C60.344 38.6022 61.406 37.5407 62.7031 37.5407H80.0997C81.3974 37.5407 82.4588 38.6027 82.4588 39.8999V52.0103C82.4588 53.308 81.3969 54.3695 80.0997 54.3695H75.9556C75.4058 54.3695 74.938 54.7181 74.7611 55.2055L72.3071 60.4257V60.4278H72.3076ZM70.8325 67.6889L76.2522 71.4705C78.569 73.056 78.6015 76.3101 76.5183 78.1091L71.6748 82.2895C69.4524 84.2076 66.4063 84.5419 63.8254 83.1436C60.769 81.4895 57.8658 79.6703 55.2184 77.746C50.0525 73.9927 46.0074 69.9469 42.2537 64.7809C40.3294 62.1334 38.5103 59.2301 36.8562 56.1736C35.458 53.5927 35.7927 50.5465 37.7103 48.324L41.8906 43.4804C43.6978 41.3869 46.9291 41.4395 48.531 43.7424L52.3085 49.1642C53.3219 50.6167 53.1244 52.5813 51.8773 53.8284L49.3325 56.3733C48.9318 56.774 48.8874 57.3806 49.2098 57.8298C51.0392 60.3726 52.9573 62.6069 55.1714 64.8088C56.334 65.9631 57.2685 66.8579 58.5301 67.9339C59.7009 68.9334 60.9114 69.884 62.1647 70.7846C62.6118 71.1069 63.2204 71.0626 63.6212 70.6618L66.1659 68.117C67.413 66.8698 69.3776 66.6723 70.83 67.6858L70.832 67.6883L70.8325 67.6889Z" fill="white"/>
</svg>
