<svg width="144" height="118" viewBox="0 0 144 118" fill="none" xmlns="http://www.w3.org/2000/svg">
<path d="M7.05227e-06 74.8394C7.05227e-06 105.652 18.981 119.598 41.7222 117.855C83.1947 114.676 144 92.2427 144 67.6405C144 46.635 95.4783 0 57.2893 0C21.1318 0 7.05227e-06 36.4695 7.05227e-06 74.8394Z" fill="#0194F6"/>
<path d="M54.5116 48.2032C57.7461 48.2032 60.8449 46.8746 63.1312 44.5105C65.418 42.1464 66.7025 38.9408 66.7025 35.5999C66.7025 32.2589 65.418 29.0526 63.1312 26.6892C60.8443 24.3278 57.7454 23 54.5116 23C51.2777 23 48.1782 24.3278 45.892 26.6892C43.6078 29.0533 42.3233 32.2589 42.3233 35.5999C42.326 38.9408 43.6131 42.1443 45.8973 44.5057C48.1815 46.8698 51.2797 48.1976 54.5116 48.2032ZM47.1985 28.0384C49.1379 26.0336 51.7669 24.9054 54.5102 24.9026C57.2562 24.9026 59.888 26.0308 61.8273 28.0357C63.7694 30.0405 64.858 32.7639 64.858 35.5999C64.858 38.4358 63.7694 41.1592 61.8273 43.1641C59.888 45.1689 57.2562 46.2971 54.5102 46.2971C51.7642 46.2971 49.1352 45.1689 47.1932 43.1641C45.2538 41.1592 44.1625 38.4358 44.1625 35.5999C44.1651 32.7632 45.2565 30.0461 47.1985 28.0384ZM92.1569 78.7549C92.3293 78.9332 92.4256 79.1757 92.4256 79.4272C92.4256 79.9536 92.0132 80.3798 91.5067 80.3798H74.335C73.8284 80.3798 73.4161 79.9536 73.4161 79.4272C73.4161 78.9007 73.8284 78.4745 74.335 78.4745H91.5067C91.7493 78.4745 91.9845 78.5767 92.1569 78.7549ZM93.6218 63.3716H76.2724C74.756 57.2133 70.2785 51.1739 63.6477 51.8564H63.6504C63.46 51.8778 63.2822 51.9587 63.1385 52.0885C60.2435 54.6765 57.3324 55.9311 54.4848 55.813H54.412C51.5611 55.929 48.6507 54.6793 45.7583 52.0885H45.7557C45.6147 51.9587 45.4349 51.8778 45.2464 51.8564C41.8609 51.5082 38.6364 52.9763 36.1751 55.9905C33.9223 58.8873 32.5256 62.3899 32.1466 66.0812C31.7209 69.1956 32.2275 72.3694 33.5955 75.1784C35.0731 78.0095 37.8137 79.8983 40.9099 80.2168C40.9493 80.2223 40.9881 80.2251 41.0275 80.2251H55.1531V84.5077C55.1558 86.4345 56.6675 87.9972 58.5313 88H93.6218C95.4883 87.9972 97 86.4345 97 84.5077V66.8611C96.9973 64.9343 95.4857 63.3744 93.6218 63.3716ZM55.1531 66.8646V78.3232H43.9513V68.5026C43.9513 67.9762 43.539 67.5499 43.0297 67.5499C42.5232 67.5499 42.1108 67.9762 42.1108 68.5026V78.3232H41.085C34.9608 77.4782 33.4231 71.3255 33.9764 66.2981C34.3106 62.9758 35.5636 59.8268 37.5838 57.2195C39.294 54.9148 41.9798 53.6112 44.786 53.7273C47.9577 56.4962 51.2102 57.8344 54.4528 57.7128C57.6953 57.8344 60.9452 56.4955 64.1196 53.7273C69.3429 53.3708 72.9717 58.2503 74.3657 63.3723H58.5307C56.6668 63.3751 55.1558 64.9378 55.1531 66.8646ZM93.6238 86.0981H58.5307C57.6819 86.0953 56.9956 85.3858 56.9929 84.5084V66.8618C56.9956 65.9844 57.6819 65.2722 58.5307 65.2722H93.6211C94.4692 65.2722 95.1589 65.9844 95.1589 66.8618V84.5084C95.1589 85.3858 94.4699 86.0953 93.6238 86.0981ZM92.1569 74.5912C92.3293 74.7694 92.4256 75.0091 92.4256 75.2634C92.4256 75.7898 92.0132 76.216 91.5067 76.216H74.335C73.8284 76.216 73.4161 75.7898 73.4161 75.2634C73.4161 74.7369 73.8284 74.3107 74.335 74.3107H91.5067C91.7493 74.3107 91.9845 74.4108 92.1569 74.5912ZM70.6835 67.8173H59.4195C58.9102 67.8173 58.4979 68.2436 58.4979 68.77V82.0393C58.5006 82.563 58.9102 82.9892 59.4195 82.9892H70.6835C70.9287 82.9892 71.164 82.889 71.3364 82.7115C71.5088 82.5339 71.605 82.2908 71.605 82.0393V68.77C71.605 68.2463 71.1927 67.8201 70.6835 67.8173ZM69.7639 81.0831L60.337 81.0804V80.5242H60.3397C61.5874 79.2316 63.2842 78.5055 65.0518 78.5055C66.8194 78.5055 68.5135 79.2316 69.7639 80.5242V81.0831ZM60.3404 78.082V69.7213L69.7619 69.7192L69.7646 78.082C66.9117 76.1117 63.1913 76.1117 60.3404 78.082ZM64.1042 70.683C63.1278 71.1009 62.4909 72.0861 62.4909 73.1763C62.4909 74.6685 63.6604 75.8775 65.1013 75.8803L65.0986 75.8748H65.1013C66.1585 75.8748 67.1115 75.2191 67.5131 74.2098C67.9174 73.2005 67.6956 72.0398 66.9491 71.2681C66.2026 70.4964 65.0799 70.2643 64.1035 70.6823L64.1042 70.683ZM65.6473 73.7373C65.4281 73.9666 65.0966 74.0343 64.8092 73.91C64.5219 73.7884 64.3341 73.4968 64.3341 73.1763C64.3367 72.7417 64.6816 72.388 65.1013 72.388L65.0986 72.3797L65.1013 72.3825C65.412 72.3797 65.694 72.5738 65.8137 72.8709C65.9313 73.168 65.8665 73.5107 65.6473 73.7373ZM92.1569 70.4267C92.3293 70.6049 92.4256 70.8474 92.4256 71.0989C92.4256 71.6253 92.0132 72.0516 91.5067 72.0516H74.335C73.8284 72.0516 73.4161 71.6253 73.4161 71.0989C73.4161 70.5724 73.8284 70.1462 74.335 70.1462H91.5067C91.7493 70.1462 91.9845 70.2484 92.1569 70.4267Z" fill="#F5FAFE"/>
</svg>
