<svg width="144" height="118" viewBox="0 0 144 118" fill="none" xmlns="http://www.w3.org/2000/svg">
<path d="M7.05227e-06 74.8394C7.05227e-06 105.652 18.981 119.598 41.7222 117.855C83.1947 114.676 144 92.2427 144 67.6405C144 46.635 95.4783 0 57.2893 0C21.1318 0 7.05227e-06 36.4695 7.05227e-06 74.8394Z" fill="#1A1F45"/>
<path d="M68.8007 33.0019C68.1035 33.0457 67.5741 33.6487 67.6177 34.3495C67.6612 35.0502 68.2612 35.5823 68.9585 35.5385C81.5757 35.3838 91.6288 45.468 91.4749 58.149C91.466 58.8497 92.0238 59.4243 92.7204 59.4338C93.4144 59.4426 93.9855 58.8865 93.9981 58.1883C94.1691 44.1369 82.9197 32.8307 68.9389 33.0019C68.8928 32.9994 68.8468 32.9994 68.8007 33.0019ZM68.7023 41.2458C68.0051 41.2896 67.4757 41.8926 67.5192 42.5934C67.5628 43.2941 68.1628 43.8262 68.86 43.7824C76.9477 43.6835 83.3715 50.1201 83.273 58.2485C83.2636 58.9493 83.8207 59.5244 84.5179 59.534C85.2132 59.5435 85.7849 58.9861 85.7969 58.2879C85.9123 48.7896 78.2916 41.1304 68.8405 41.2458C68.7944 41.2433 68.7483 41.2433 68.7023 41.2458ZM42.1433 44.4159C41.4934 44.4774 40.9975 45.0279 41 45.6842C41.0063 55.738 44.8463 65.8006 52.4753 73.4668C60.1042 81.1323 70.1131 84.9937 80.1182 85C80.8148 85 81.3801 84.4324 81.3801 83.7317V70.2567C81.3827 69.6841 81.0028 69.1806 80.4533 69.0284L70.1415 66.254C69.467 66.079 68.778 66.4861 68.6039 67.1646L67.6183 70.8116C64.9853 69.4901 62.4791 67.8064 60.2834 65.6002C58.0895 63.3959 56.4326 60.8923 55.1177 58.2485L58.7457 57.258C59.4133 57.0741 59.8089 56.3848 59.6329 55.7126L56.8724 45.3487C56.8219 45.1737 56.7349 45.0114 56.6163 44.8731C56.3815 44.5903 56.0364 44.4242 55.6698 44.4172H51.7263C51.0291 44.4077 50.4568 44.9676 50.4474 45.6684C50.4379 46.3691 50.995 46.9443 51.6922 46.9538C51.7036 46.9538 51.715 46.9538 51.7269 46.9538H54.7044L56.8731 55.1381L52.91 56.2282C52.2399 56.4222 51.8538 57.1248 52.0462 57.7977C52.0614 57.8503 52.0797 57.9017 52.1011 57.9518C53.5889 61.38 55.7184 64.6002 58.5091 67.4043C61.2999 70.2085 64.5032 72.35 67.9142 73.8447C68.5546 74.1212 69.2966 73.8232 69.5717 73.1795C69.5951 73.125 69.614 73.0698 69.6298 73.0127L70.7144 69.0493L78.8576 71.2289V82.4051C69.9213 82.0918 61.0778 78.5241 54.2508 71.6645C47.4225 64.8037 43.8949 55.932 43.5832 46.9525H46.6786C47.3759 46.962 47.9481 46.4021 47.9576 45.7013C47.9671 45.0006 47.4099 44.4254 46.7127 44.4159C46.7014 44.4159 46.69 44.4159 46.678 44.4159H42.2619C42.2228 44.414 42.1824 44.414 42.1433 44.4159ZM68.6234 48.2208C67.9262 48.2645 67.3968 48.8676 67.4404 49.5684C67.4839 50.2691 68.0839 50.8011 68.7812 50.7574C73.0382 50.7047 76.3842 54.0689 76.3325 58.3468C76.3186 59.0469 76.8726 59.6259 77.5692 59.6399C78.2657 59.6538 78.8418 59.097 78.8557 58.3969C78.8557 58.3868 78.8557 58.3766 78.8557 58.3665C78.9238 52.7182 74.3614 48.1517 68.7408 48.2208C68.7017 48.2189 68.6625 48.2189 68.6234 48.2208Z" fill="white"/>
</svg>
