<svg width="144" height="118" viewBox="0 0 144 118" fill="none" xmlns="http://www.w3.org/2000/svg">
<path d="M7.05227e-06 74.8394C7.05227e-06 105.652 18.981 119.598 41.7222 117.855C83.1947 114.676 144 92.2427 144 67.6405C144 46.635 95.4783 0 57.2893 0C21.1318 0 7.05227e-06 36.4695 7.05227e-06 74.8394Z" fill="#FFBE28"/>
<path d="M77.2447 46.487C76.8528 46.1961 76.7728 45.6419 77.0679 45.25C77.3594 44.8589 77.9149 44.7826 78.3069 45.0735C78.9388 45.5444 79.5219 45.7386 80.0116 45.7492H80.0667C80.344 45.7456 80.5876 45.6871 80.7956 45.586C81.0071 45.4823 81.1742 45.3404 81.2817 45.1879C81.3688 45.0629 81.4133 44.9387 81.4106 44.8314C81.4071 44.6966 81.2888 44.5547 81.0213 44.4404L80.9831 44.4262C80.7298 44.3224 80.4276 44.2462 80.1254 44.1664C79.6392 44.0378 79.1459 43.9101 78.7015 43.6884C78.066 43.3701 77.6287 42.9267 77.3887 42.4204C77.1247 41.8661 77.1079 41.2632 77.323 40.6673L77.3434 40.6123C77.4785 40.262 77.6696 39.9676 77.9025 39.7291C78.25 39.3726 78.6802 39.1403 79.1424 39.0188V38.1117C79.1424 37.6231 79.5414 37.2249 80.0312 37.2249C80.5209 37.2249 80.92 37.6231 80.92 38.1117V39.033C81.0764 39.0711 81.2293 39.1199 81.3786 39.1784C81.823 39.3478 82.2292 39.5978 82.5483 39.902C82.8994 40.2416 82.9056 40.802 82.5661 41.1523C82.2257 41.5026 81.663 41.5088 81.3128 41.17C81.1671 41.0282 80.9689 40.9102 80.7467 40.8233C80.5351 40.74 80.3058 40.6921 80.0765 40.6814H80.0312C80.0072 40.6814 79.9823 40.6814 79.9583 40.6779C79.9059 40.6779 79.8543 40.6814 79.8054 40.6885C79.5521 40.716 79.3263 40.8029 79.1699 40.9625C79.097 41.0353 79.0384 41.1319 78.993 41.2498L78.9824 41.2738C78.9335 41.4121 78.937 41.5478 78.993 41.6622C79.0659 41.8183 79.2357 41.9708 79.4997 42.1056C79.7841 42.251 80.1805 42.3512 80.5689 42.4558C80.944 42.5525 81.3191 42.65 81.6488 42.7848L81.7013 42.8052C82.7012 43.2282 83.1527 43.9757 83.1803 44.7764C83.198 45.2686 83.038 45.7634 82.7394 46.1935C82.4621 46.5916 82.0621 46.9419 81.5733 47.1804C81.3715 47.2771 81.1564 47.3569 80.9244 47.4163V48.3208C80.9244 48.8094 80.5254 49.2075 80.0356 49.2075C79.5459 49.2075 79.1468 48.8094 79.1468 48.3208V47.4163C78.5389 47.2744 77.8971 46.98 77.2438 46.4879L77.2447 46.487ZM94.9971 74.219C95.0282 74.6003 94.8095 74.9462 94.4798 75.0951L90.2339 77.3297C89.873 77.5204 89.4384 77.4335 89.1753 77.1533L88.4634 76.4501L81.4639 79.4189C81.4817 79.5954 81.4844 79.7754 81.4782 79.9527C81.4471 80.5557 81.2666 81.1578 80.9191 81.7023C80.384 82.5367 79.5583 83.0741 78.6624 83.2718C78.3984 83.3303 78.1273 83.3587 77.8536 83.3552C77.9789 84.1834 77.8154 85.0595 77.3292 85.8177C76.7941 86.6521 75.9684 87.1894 75.0689 87.3863C74.8538 87.4351 74.6352 87.459 74.4165 87.4697C74.5134 88.1932 74.3641 88.9594 73.9374 89.6209C73.4584 90.3622 72.7224 90.8437 71.9172 91.0166C71.5039 91.1071 71.0701 91.1133 70.6462 91.037C70.6284 91.5638 70.4791 92.0967 70.1911 92.5782C70.1733 92.6092 70.1564 92.6403 70.1386 92.6686L70.104 92.7174C69.6249 93.4277 68.9023 93.8879 68.121 94.0582C67.3398 94.2284 66.4927 94.1069 65.7603 93.66C65.7257 93.6396 65.691 93.6183 65.6599 93.5944L64.5978 92.9116L64.452 93.1714C63.9694 94.0307 63.1774 94.6159 62.2886 94.8651C61.4202 95.1072 60.4586 95.0318 59.608 94.5707C59.5733 94.553 59.5422 94.5361 59.5075 94.5157C58.8445 94.1309 58.3512 93.5634 58.0525 92.9152C57.7157 93.1679 57.337 93.355 56.9379 93.4658C56.1149 93.6982 55.2056 93.6148 54.4066 93.1714L54.3959 93.1679C53.6982 92.7768 53.1943 92.1703 52.9205 91.4777C52.6707 91.6161 52.4068 91.7234 52.1357 91.7996C51.254 92.0488 50.2745 91.9628 49.4168 91.4848L49.4061 91.4813C48.5449 90.9998 47.9582 90.2097 47.7085 89.323C47.5174 88.6473 47.5245 87.9166 47.7538 87.2276C47.1325 87.2515 46.497 87.1167 45.914 86.8019C45.8793 86.7842 45.8482 86.7674 45.8171 86.747C44.9807 86.2619 44.411 85.486 44.1683 84.617C43.9186 83.7338 44.0048 82.7531 44.4874 81.8947L44.6367 81.6278L44.0608 81.0771L42.2378 79.3311L39.8176 78.1287L36.5085 76.4838L35.8241 77.1559C35.5566 77.4397 35.1264 77.523 34.7655 77.3324L30.5161 75.0951C30.1899 74.9462 29.9748 74.603 30.0024 74.2261C30.2868 70.5789 31.1409 67.2084 32.5577 64.119C33.9674 61.0393 35.9397 58.2443 38.463 55.7366C38.5395 55.6399 38.6506 55.5637 38.7688 55.5185H38.7723L38.7901 55.5114L38.8105 55.5043L38.8488 55.4901L38.8692 55.483L38.8896 55.4794C39.1047 55.4271 39.3376 55.4555 39.542 55.5726L44.4892 58.427C44.8678 58.6451 45.0243 59.1027 44.8785 59.4973L44.7087 59.9611C45.6598 60.6784 46.7192 61.1803 47.8854 61.4641C49.2461 61.7966 50.7598 61.8383 52.4263 61.5927C53.9329 61.0074 55.4056 60.737 56.8393 60.7928C58.3183 60.8478 59.7484 61.2397 61.1198 61.9669C61.1438 61.9811 61.1687 61.9944 61.1892 62.0085L62.4913 62.7915L63.7934 62.0085C63.8138 61.9944 63.8387 61.9811 63.8627 61.9669C65.2377 61.2397 66.6643 60.8478 68.1433 60.7928C69.5769 60.7405 71.0461 61.0074 72.5562 61.5927C74.2228 61.8418 75.7364 61.7966 77.0972 61.4641C78.2607 61.1803 79.3192 60.6775 80.2738 59.9611L80.1041 59.4973C79.9583 59.1027 80.1147 58.6451 80.4934 58.427L85.4405 55.5726C85.6449 55.4546 85.8778 55.4271 86.0929 55.4794L86.1133 55.483L86.1338 55.4901L86.172 55.5043L86.1924 55.5114L86.2102 55.5185H86.2138C86.332 55.5672 86.4431 55.6399 86.5329 55.7366C89.0571 58.2443 91.0294 61.0393 92.439 64.119C93.8558 67.212 94.7064 70.5789 94.9944 74.2235L94.9971 74.219ZM37.5813 66.2339C38.8274 63.6606 40.6051 61.4818 42.9142 59.6977L42.9595 59.5762L39.2514 57.4392C37.0916 59.68 35.3939 62.1495 34.1576 64.8488C32.9044 67.5817 32.1266 70.5577 31.8138 73.7819L35.0082 75.4649L35.4597 75.018C35.6437 71.7095 36.3485 68.7797 37.5813 66.2339ZM49.0675 84.7252L49.7794 83.4607C49.8105 83.4057 49.8416 83.3498 49.8727 83.3011L49.9421 83.1938L50.9527 81.3963L50.9633 81.3759C51.1962 80.9468 51.238 80.4582 51.1126 80.0183C50.9873 79.5714 50.6887 79.1697 50.2549 78.9276C49.9216 78.7405 49.5466 78.6714 49.1892 78.706L49.1715 78.7095H49.1226L49.119 78.7131H49.1048L49.0773 78.7201H49.0666L49.0524 78.7237H49.0488L49.0284 78.7308H49.0248L49.0106 78.7343H48.9964L48.9822 78.7379L48.9617 78.745H48.9582L48.9439 78.7485H48.9404L48.9297 78.7521L48.9022 78.7592L48.8879 78.7663L48.8737 78.7698L48.8773 78.7663L48.8568 78.7734H48.8533L48.8391 78.7769H48.8355L48.8248 78.7804L48.7973 78.7875L48.7902 78.7911L48.7866 78.7946L48.7724 78.7982H48.7688L48.7484 78.8053H48.7448L48.7306 78.8088L48.7164 78.8159L48.7022 78.8195L48.6915 78.823L48.6844 78.8266L48.6808 78.8301L48.6666 78.8336H48.6631L48.6426 78.8407L48.6009 78.8611C48.5733 78.8718 48.5484 78.8851 48.5209 78.8993L48.5137 78.9028L48.5031 78.9099H48.4995C48.3644 78.9826 48.2355 79.0695 48.1209 79.1768L48.072 79.2256L48.0613 79.2327L48.0409 79.2531L48.0516 79.2566L48.0276 79.2806L48.0098 79.301L48.0062 79.3045L48.0027 79.3116L47.9787 79.3355V79.3391L47.9716 79.3497L47.9645 79.3639L47.9573 79.3746V79.3781L47.9502 79.3852L47.936 79.4056L47.9325 79.4127L47.9289 79.4162L47.9218 79.4269L47.9111 79.4375L47.8969 79.4579L47.8934 79.465L47.8898 79.4686L47.8827 79.4792L47.872 79.4898L47.8578 79.5102L47.8542 79.5173L47.8507 79.5209L47.8436 79.5315L47.8329 79.5422L47.8187 79.5626L47.8151 79.5696L47.8116 79.5732L47.8045 79.5838L47.8009 79.5874L47.7974 79.5945L47.7903 79.6051L46.5121 81.8805L46.4846 81.9186L46.0091 82.7637C45.7664 83.1964 45.7211 83.6957 45.8491 84.1426C45.9744 84.5895 46.273 84.9912 46.7068 85.2333L46.7139 85.2368C47.1476 85.4789 47.6445 85.5206 48.0889 85.3964C48.4675 85.2892 48.8106 85.0639 49.0577 84.7314L49.0675 84.7252ZM54.7061 85.768L54.7097 85.7644L54.7168 85.7538L54.7239 85.7467L55.6856 84.0353C55.9283 83.6026 55.9736 83.1033 55.8491 82.6564C55.7247 82.2095 55.4252 81.8078 54.9914 81.5648C54.5577 81.3227 54.0573 81.2775 53.6093 81.4017C53.1685 81.5267 52.773 81.814 52.5259 82.2361L52.5152 82.2565L51.4877 84.085L51.4771 84.0885L50.7651 85.353C50.7509 85.384 50.734 85.4151 50.7127 85.4434C50.6674 85.5197 50.6194 85.596 50.5705 85.6687L49.5634 87.4599C49.3208 87.8926 49.2755 88.3919 49.4035 88.8388C49.5252 89.2751 49.8096 89.6635 50.2265 89.9091C50.2505 89.9233 50.2754 89.933 50.2994 89.9508C50.726 90.176 51.2086 90.2141 51.6468 90.0926C52.0948 89.9676 52.4974 89.6697 52.741 89.2369L53.7684 87.4085C53.7889 87.3739 53.8102 87.3429 53.8306 87.3118L53.8724 87.2533L53.9178 87.1699L54.7061 85.768ZM59.9413 86.5262L60.0728 86.2938L60.0764 86.2832C60.2808 85.909 60.319 85.4869 60.2115 85.0985C60.1039 84.7101 59.847 84.3678 59.472 84.1568L59.4515 84.1461C59.08 83.9448 58.6596 83.9103 58.2783 84.0176C57.889 84.1249 57.5459 84.3811 57.3344 84.7589L56.4002 86.4215C56.3824 86.4561 56.362 86.4871 56.338 86.5182C56.3176 86.5492 56.2962 86.5803 56.2758 86.6184L56.2616 86.6326H56.2509L55.4625 88.0354V88.0531L55.459 88.0567V88.0602L54.6537 89.4941C54.4422 89.8683 54.4039 90.2975 54.515 90.6859C54.619 91.0601 54.8626 91.3962 55.2199 91.6072C55.2439 91.6178 55.2688 91.6311 55.2892 91.6453C55.6572 91.8395 56.074 91.8741 56.4527 91.7668C56.8277 91.6631 57.1646 91.4201 57.3761 91.0636C57.3904 91.0361 57.4037 91.0087 57.4215 90.9838L58.3307 89.3629C58.3547 89.3212 58.3796 89.2866 58.4072 89.2485L58.4347 89.2068L58.4623 89.158L58.4694 89.1438L59.9413 86.5262ZM64.8609 88.0682L64.8573 88.0407C64.8466 87.9574 64.8297 87.874 64.8049 87.7951C64.6795 87.3482 64.3809 86.9465 63.9472 86.7044C63.5134 86.4623 63.013 86.4171 62.565 86.5448C62.1242 86.6627 61.7216 86.9571 61.478 87.3934L60.0061 90.012L59.7146 90.5316C59.472 90.9643 59.4266 91.4636 59.5511 91.9105C59.6755 92.3574 59.975 92.7591 60.4088 93.0021L60.4159 93.0056C60.8496 93.245 61.3429 93.2858 61.7909 93.1617C62.2389 93.0366 62.6415 92.7387 62.885 92.306L63.5792 91.069L63.5863 91.0548L64.6484 89.1669L64.6795 89.1048V89.1013L64.6867 89.0871V89.0835L64.6973 89.0631L64.7151 89.0215L64.7258 89.0011V88.9975L64.7364 88.9736L64.74 88.9665C64.7506 88.9354 64.764 88.908 64.7746 88.876L64.7782 88.8689L64.7853 88.845L64.7924 88.8308C64.8129 88.7687 64.8271 88.7058 64.8413 88.6437C64.8795 88.4531 64.8831 88.2589 64.8617 88.0691L64.8609 88.0682ZM68.8401 90.6415C68.7814 90.3675 68.6419 90.1077 68.4303 89.9109L68.4197 89.9038C68.3539 89.8621 68.2944 89.8133 68.2428 89.7619L68.225 89.7513L68.2046 89.7406C68.1868 89.73 68.1699 89.7167 68.1521 89.7025L66.6314 88.7191L66.6243 88.7714V88.7749L66.6207 88.8024V88.806L66.6136 88.8477L66.61 88.8618V88.9621L66.6065 88.9727L66.5754 89.1288L66.5718 89.1394V89.1465L66.5647 89.1811V89.1846L66.5612 89.1988L66.5576 89.2165L66.5541 89.2272V89.2307L66.5469 89.2653V89.2689L66.5434 89.2831L66.5398 89.3008L66.5363 89.315V89.3185L66.5221 89.3531L66.5185 89.3602L66.5149 89.3708L66.5078 89.3886L66.5043 89.4028V89.4063L66.4901 89.4409L66.4865 89.448L66.4829 89.4586L66.4554 89.5278L66.4483 89.542L66.4412 89.5597L66.427 89.5908L66.4198 89.6085L66.4163 89.6191L66.4127 89.6262L66.4056 89.644L66.3914 89.675L66.3843 89.6927L66.3807 89.7034L66.3772 89.7105L66.363 89.745V89.7486L66.3558 89.7628L66.3487 89.7805L66.3416 89.7947L66.3381 89.7982L66.3105 89.816L66.2901 89.8683L66.283 89.8825V89.886L66.2687 89.9206L66.2652 89.9277L66.2581 89.9384L66.251 89.9561L66.2439 89.9703L66.2296 90.0049L66.2261 90.012L66.2225 90.0226L66.2119 90.0403L66.2047 90.0581L65.4581 91.3882L65.5239 91.4334L66.6554 92.1605L66.6589 92.1641C66.9887 92.3751 67.378 92.431 67.7353 92.3547C68.0962 92.2749 68.4223 92.0639 68.6383 91.7349L68.649 91.7145L68.6765 91.6764C68.8605 91.3616 68.9059 90.9936 68.833 90.6548L68.8401 90.6415ZM79.6961 79.8472C79.7068 79.6016 79.6721 79.3551 79.585 79.1236L72.558 74.5649L72.5402 74.5755L69.336 72.497C67.985 71.8319 66.5727 71.565 65.0964 71.6971C63.5863 71.8319 61.9891 72.3861 60.3048 73.3598L60.287 73.3704C59.4186 73.8865 58.5129 74.2119 57.5752 74.3476C56.6411 74.4824 55.6829 74.4274 54.7044 74.1809V74.1773C54.635 74.1596 54.5693 74.1357 54.5026 74.1011C54.044 73.8555 53.6484 73.5921 53.3116 73.311L53.2698 73.2764C52.6272 72.7257 52.2112 72.1024 52.0237 71.4125V71.4089L52.0059 71.3504L51.9988 71.3265L51.9952 71.3158L51.981 71.2538L51.9775 71.2431L51.9739 71.2227C51.8833 70.7935 51.8868 70.3466 51.981 69.882L51.9952 69.8128L52.013 69.7436L52.0201 69.7126V69.709L52.0308 69.6745L52.0344 69.6674L52.0415 69.6399L52.0486 69.6053L52.0557 69.5778V69.5707L52.0663 69.5361V69.5326L52.077 69.5015L52.0806 69.4838L52.0877 69.4634L52.0948 69.4359L52.0983 69.4288L52.109 69.3943V69.3907L52.1197 69.3597L52.1232 69.3455L52.141 69.3003L52.1446 69.2896L52.1588 69.255L52.1899 69.1619L52.2041 69.1273L52.2077 69.1167L52.2254 69.0821L52.253 69.0333L52.2877 68.9846C52.3054 68.9606 52.3259 68.9358 52.3428 68.9154L52.4263 68.8321L52.4441 68.8179L52.4512 68.8108L52.4752 68.793L52.4956 68.8001L52.5099 68.7859L52.5276 68.7753L52.5588 68.7549L60.7732 63.8122L60.2763 63.5142C59.1413 62.9148 57.9743 62.5929 56.7762 62.5477C55.5647 62.5025 54.3044 62.7383 53.0023 63.2544C52.9365 63.2819 52.8672 63.3032 52.7943 63.313C50.8567 63.6144 49.0826 63.5657 47.4721 63.1746C46.0695 62.8314 44.7985 62.2293 43.6528 61.3701C41.733 62.929 40.2433 64.8062 39.1812 67.0027C38.0808 69.2745 37.4382 71.8966 37.2471 74.869L40.6042 76.5352L43.1391 77.7962C43.2191 77.8343 43.292 77.8866 43.3577 77.9522L45.2811 79.7949L45.5238 80.0272L46.2428 78.7494L46.257 78.7255L46.2677 78.7077L46.2713 78.7006L46.2855 78.6767L46.289 78.6696L46.2997 78.6554L46.3139 78.6315L46.3281 78.6111L46.3388 78.5933L46.3424 78.5862L46.3566 78.5623L46.3637 78.5517L46.3744 78.5375V78.5339L46.4019 78.4923L46.4126 78.4745L46.4161 78.471L46.4339 78.4506L46.465 78.4054L46.4686 78.4018L46.4828 78.3814L46.497 78.3637L46.5006 78.3601L46.5184 78.3397L46.5326 78.3193L46.5504 78.2989L46.5539 78.2954L46.5681 78.2777L46.6721 78.1526L46.6899 78.1322C47.1547 77.6055 47.7591 77.2384 48.4151 77.0513C48.512 77.0238 48.6062 77.0025 48.7031 76.9821H48.7066L48.7271 76.9786L48.7795 76.9679L48.7902 76.9644L48.8079 76.9608C48.8533 76.9537 48.8951 76.9467 48.9395 76.9404L48.9635 76.9369H48.967C49.6959 76.85 50.4567 76.9821 51.1402 77.3661H51.1438C52.005 77.8476 52.5916 78.6377 52.8414 79.5244C52.8618 79.6042 52.8832 79.6805 52.9001 79.7603C52.9765 79.7328 53.0565 79.708 53.1365 79.684C54.0217 79.4349 55.0048 79.5209 55.8651 80.0059C56.7264 80.4874 57.313 81.2775 57.5628 82.1643C57.5806 82.2299 57.5975 82.2955 57.6117 82.362C57.6739 82.3416 57.737 82.3203 57.8028 82.3035C58.608 82.0782 59.5004 82.1474 60.2923 82.5739C60.3306 82.5917 60.3652 82.6121 60.3999 82.636C61.174 83.0865 61.6985 83.8101 61.9278 84.6143C61.9518 84.6941 61.9695 84.7775 61.9864 84.86C62.0282 84.8458 62.07 84.836 62.1118 84.8218C62.997 84.5727 63.9765 84.6587 64.8404 85.1402H64.844C65.3337 85.4142 65.7328 85.7848 66.0314 86.2176L69.1147 88.1853C69.1423 88.1995 69.1698 88.2163 69.1983 88.234L69.2054 88.2376C69.3165 88.3103 69.4169 88.3866 69.5183 88.4664L70.4728 89.0791C70.8026 89.2901 71.1919 89.3496 71.5528 89.2698C71.9136 89.1899 72.2434 88.9789 72.4558 88.6499C72.6673 88.3209 72.7269 87.9325 72.6469 87.5725C72.5669 87.2125 72.3554 86.8835 72.0256 86.6716L70.8941 85.9445L70.8906 85.9409L70.8141 85.8921L69.7102 85.1889L69.6614 85.1544C69.0676 84.7766 68.4223 84.3643 67.7726 83.9555C67.6509 83.8792 67.7202 83.9244 66.1372 82.9127C65.7239 82.6493 65.6021 82.1057 65.8661 81.6934C66.1301 81.2811 66.6749 81.1596 67.0882 81.4229C67.5815 81.7377 67.7513 81.8424 68.7237 82.4587C69.6711 83.0581 70.6124 83.6575 71.8514 84.4574L72.6851 84.9912L73.3313 85.4035C73.7517 85.6705 74.2476 85.7432 74.7063 85.643C75.1613 85.5428 75.5809 85.2723 75.8449 84.8564C76.1124 84.437 76.1853 83.9422 76.0848 83.4846C75.9879 83.0377 75.7204 82.6254 75.3142 82.3593L75.2938 82.3452L73.5233 81.2163L73.5197 81.2128L73.5126 81.2092L73.5055 81.2021L72.926 80.8315L72.8007 80.7481L72.7695 80.7277C72.7207 80.6932 72.6789 80.6621 72.6442 80.6346L70.919 79.5333C70.5057 79.2699 70.384 78.7264 70.6479 78.314C70.9119 77.9017 71.4568 77.7802 71.8701 78.0436L73.6477 79.1795H73.6584L74.2379 79.5501C74.3036 79.5918 74.3525 79.6264 74.3943 79.6539L74.3979 79.6574L74.5018 79.7372L76.2377 80.8457L76.2759 80.8696L76.9114 81.2749C77.3318 81.5418 77.8278 81.6145 78.2864 81.5143C78.7415 81.4141 79.161 81.1436 79.425 80.7277C79.5983 80.4537 79.6925 80.1496 79.7059 79.8481L79.6961 79.8472ZM87.7301 74.8353C87.539 71.8807 86.8937 69.2692 85.7996 67.0071C84.7375 64.8107 83.2442 62.9299 81.328 61.3745C80.1823 62.2338 78.9113 62.8359 77.5087 63.1791C75.8982 63.5737 74.1232 63.6189 72.1865 63.3174C72.1136 63.3067 72.0443 63.2863 71.9785 63.2589C70.6764 62.7428 69.4196 62.5069 68.2046 62.5521C67.01 62.5973 65.8403 62.9192 64.7044 63.5187L62.9615 64.5686L62.941 64.5828L53.7542 70.1107L53.7507 70.1249V70.132L53.7435 70.1524V70.1489L53.7329 70.1905L53.7293 70.2012V70.2047L53.7222 70.2393V70.2464C53.6875 70.4442 53.6804 70.6277 53.708 70.8042V70.8077L53.7115 70.8317V70.8458L53.7151 70.8565L53.7187 70.8707V70.8742L53.7222 70.8849V70.8955L53.7364 70.9576C53.8271 71.2972 54.0555 71.6226 54.4208 71.9348L54.4626 71.9729C54.6741 72.1494 54.931 72.3196 55.2296 72.4854C55.9514 72.6548 56.65 72.6894 57.3237 72.5927C58.025 72.4925 58.712 72.2425 59.3822 71.8443L59.4097 71.8301C61.3154 70.7288 63.1597 70.0948 64.9409 69.9352C66.7638 69.772 68.4997 70.1019 70.152 70.9221C70.2044 70.9496 70.2524 70.9806 70.2942 71.0126L77.1061 75.4321L80.7413 77.7908L80.752 77.7979L87.731 74.8362L87.7301 74.8353ZM93.1679 73.7863C92.855 70.5648 92.0737 67.5862 90.8241 64.8532C89.5877 62.1549 87.8901 59.6853 85.7312 57.4436L82.0266 59.5806L82.0683 59.7012C84.3775 61.4818 86.1551 63.6606 87.4012 66.2374C88.6305 68.7833 89.3389 71.714 89.5228 75.0215L89.9744 75.4685L93.1688 73.7854L93.1679 73.7863ZM43.6093 30.4023C43.6093 29.9935 43.7764 29.6228 44.043 29.3559C44.3096 29.089 44.6821 28.9232 45.0918 28.9232H56.4002V27.6241C56.4002 26.6265 56.81 25.7194 57.4659 25.0641C57.4837 25.0464 57.5041 25.0295 57.521 25.0118C58.1734 24.3848 59.0596 24 60.031 24H64.9337C65.9337 24 66.8429 24.4052 67.4998 25.0632C68.1557 25.7176 68.5654 26.6257 68.5654 27.6232V28.9223H79.8774C80.2872 28.9223 80.6587 29.089 80.9262 29.3551C81.1937 29.6211 81.36 29.9962 81.36 30.4014V34.2605C83.3322 34.5514 85.0992 35.4727 86.4431 36.817C88.0856 38.4557 89.1024 40.7205 89.1024 43.222C89.1024 45.7235 88.0847 47.9882 86.4431 49.6269C84.8006 51.2656 82.5305 52.2801 80.0232 52.2801C79.8285 52.2801 79.6241 52.273 79.4223 52.2597V53.1872C79.4223 53.5685 79.2695 53.9143 79.0197 54.168L79.0019 54.1857C78.7451 54.442 78.394 54.598 78.0056 54.598H46.9699C46.6223 54.598 46.2997 54.4694 46.0535 54.2549C46.026 54.2345 45.9984 54.2096 45.9735 54.1821C45.7166 53.9259 45.5602 53.5721 45.5602 53.1845L45.5567 41.2481C43.6404 39.8488 43.6093 37.1008 43.6093 30.4023ZM77.6411 51.9564C76.0964 51.537 74.7143 50.7203 73.6139 49.6216C71.9714 47.9829 70.9546 45.7182 70.9546 43.2166C70.9546 43.1439 70.9546 43.0748 70.9581 43.0021C69.9858 43.2166 69.0312 43.4215 68.1388 43.6086C67.226 43.7957 66.347 43.9722 65.5595 44.1211V44.357C65.5595 45.1985 65.2119 45.9673 64.6564 46.5215C64.6387 46.5419 64.6182 46.5597 64.5978 46.5765C64.0458 47.0997 63.2992 47.4216 62.4868 47.4216C61.6433 47.4216 60.8763 47.0749 60.3199 46.5207L60.3163 46.5171C59.7573 45.9629 59.4133 45.1976 59.4133 44.3552V44.1158C56.8233 43.6449 54.6635 43.3328 52.8823 43.0765C50.4523 42.7263 48.6568 42.47 47.3343 42.0683V52.8201L77.6411 52.8165V51.9537V51.9564ZM63.4032 40.4509L63.4068 40.4473L63.4032 40.4438C63.1703 40.215 62.8477 40.0696 62.4904 40.0696C62.1366 40.0696 61.8096 40.215 61.5776 40.4509C61.3411 40.6868 61.1954 41.0087 61.1954 41.3616V44.3579C61.1954 44.7144 61.3411 45.0371 61.574 45.2721C61.8104 45.5045 62.1331 45.6499 62.4904 45.6499C62.8308 45.6499 63.1392 45.5186 63.3685 45.3067L63.4032 45.2686C63.6396 45.0327 63.7854 44.7108 63.7854 44.3579V41.3616C63.7854 41.0087 63.6396 40.6823 63.4032 40.4509ZM74.8707 38.07C73.5517 39.3859 72.7322 41.2082 72.7322 43.2211C72.7322 45.234 73.5481 47.0554 74.8707 48.3722C76.1897 49.6881 78.0162 50.5057 80.0338 50.5057C82.0515 50.5057 83.8771 49.6917 85.197 48.3722C86.5169 47.0527 87.3355 45.2304 87.3355 43.2211C87.3355 41.2117 86.5195 39.3903 85.197 38.07C83.878 36.7541 82.0515 35.9365 80.0338 35.9365C78.0162 35.9365 76.1906 36.7505 74.8707 38.07ZM58.185 28.9197H66.7958V27.6206C66.7958 27.1116 66.5878 26.6469 66.251 26.3144C65.9141 25.9783 65.4528 25.7708 64.9417 25.7708H60.039C59.5457 25.7708 59.0978 25.9615 58.7645 26.2763L58.7298 26.3144C58.3929 26.6505 58.185 27.1107 58.185 27.6206V28.9197ZM45.3869 30.6923C45.3904 40.2106 45.5362 40.2319 53.1329 41.3261C54.8519 41.5717 56.9175 41.8697 59.4133 42.3202V41.3607C59.4133 40.5192 59.7608 39.7504 60.3163 39.1961C60.8719 38.6419 61.6389 38.2952 62.4859 38.2952C63.333 38.2952 64.0965 38.6384 64.6555 39.1961H64.6591C65.2182 39.7504 65.5621 40.5156 65.5621 41.3607V42.3237C66.2287 42.1925 66.9789 42.0435 67.7771 41.8768C68.881 41.648 70.0444 41.3988 71.1937 41.1426C71.5856 39.4764 72.4398 37.9866 73.6139 36.8161C75.1587 35.275 77.2598 34.2836 79.5894 34.1727V30.6914L45.3869 30.6923Z" fill="white"/>
</svg>
