<svg xmlns="http://www.w3.org/2000/svg" version="1.1" xmlns:xlink="http://www.w3.org/1999/xlink" width="99" height="33"><svg width="99" height="33" viewBox="0 0 99 33" fill="none" xmlns="http://www.w3.org/2000/svg">
<path d="M12.7445 20.1882H6.58992C4.26759 20.1882 2.58829 19.7486 1.55306 18.8696C0.517618 17.9906 0 16.5588 0 14.5741V0H4.03533V14.5741C4.03533 15.3679 4.21897 15.9165 4.58686 16.2186C4.95434 16.5212 5.62189 16.6723 6.58992 16.6723H12.7445V20.1882ZM27.9855 16.6723H20.96C19.992 16.6723 19.3243 16.5212 18.9568 16.2186C18.5889 15.9165 18.4053 15.3679 18.4053 14.5741V11.767H24.8211L25.1114 8.25115H18.4053V3.51608H27.9855V0H14.3699V14.8576C14.3699 16.8425 14.8389 18.2272 15.7779 19.0115C16.7164 19.7961 18.3472 20.1882 20.6696 20.1882H27.9855V16.6723ZM45.0264 14.3756C45.0264 12.1072 44.078 10.5385 42.1816 9.66883C42.8201 9.36658 43.4053 8.85625 43.9379 8.13763C44.4698 7.41961 44.7361 6.54977 44.7361 5.5291C44.7361 3.77105 44.2377 2.41023 43.2411 1.44622C42.2441 0.482005 40.7588 0 38.7848 0H30.0465V14.9994C30.0465 16.9087 30.5256 18.2508 31.4836 19.0256C32.4416 19.8009 34.0623 20.1882 36.3462 20.1882H39.1332C40.9911 20.1882 42.4377 19.6874 43.4734 18.6853C44.5084 17.6838 45.0264 16.2469 45.0264 14.3756ZM34.0817 7.88246V3.51608H38.4655C39.9554 3.51608 40.7008 4.24388 40.7008 5.69927C40.7008 7.15467 39.9554 7.88246 38.4655 7.88246H34.0817ZM40.9911 14.1771C40.9911 15.8407 40.2363 16.6723 38.7268 16.6723H36.6365C35.7267 16.6723 35.0734 16.521 34.6769 16.2186C34.28 15.9163 34.0817 15.3777 34.0817 14.6024V11.4267H38.7268C39.5781 11.4267 40.1683 11.6585 40.4976 12.1214C40.8264 12.5848 40.9911 13.2697 40.9911 14.1771ZM56.3194 1.70138C56.0676 1.02087 55.7822 0.567194 55.4629 0.340356C55.1437 0.113519 54.7227 0 54.2001 0C53.6776 0 53.237 0.123095 52.8791 0.368686C52.5208 0.614477 52.1969 1.05878 51.9066 1.70118L45.2877 20.188H49.497L50.6293 16.7004H57.5677L58.729 20.188H62.9383L56.3194 1.70138ZM51.6453 13.3832L54.2001 5.38745L56.6387 13.3832H51.6453ZM75.5085 12.0505C76.5725 11.6727 77.468 10.9872 78.1938 9.99483C78.9195 9.00249 79.2825 7.8258 79.2825 6.46478C79.2825 4.59341 78.6773 3.04824 77.468 1.82907C76.2583 0.609689 74.6274 0 72.5764 0H69.1506C67.4668 0 66.2665 0.345145 65.5507 1.03503C64.8346 1.72532 64.4767 2.82619 64.4767 4.33825V20.1882H68.5118V12.7027H71.4151L75.4502 20.1882H80.1243L75.5085 12.0505ZM74.4197 8.54881C73.8682 9.12558 73.1663 9.41367 72.3149 9.41367H68.5118V5.30226C68.5118 4.11141 69.1116 3.51608 70.3119 3.51608H72.3149C73.2049 3.51608 73.9162 3.78083 74.4487 4.30992C74.9808 4.8394 75.2472 5.53388 75.2472 6.39395C75.2472 7.25402 74.9712 7.97244 74.4197 8.54881ZM92.3811 1.70138C92.1292 1.02087 91.8438 0.567194 91.5246 0.340356C91.2053 0.113519 90.7843 0 90.2618 0C89.7393 0 89.2987 0.123095 88.9408 0.368686C88.5825 0.614477 88.2585 1.05878 87.9682 1.70118L81.3493 20.188H85.5587L86.691 16.7004H93.6294L94.7904 20.188H99L92.3811 1.70138ZM87.707 13.3832L90.2618 5.38745L92.7003 13.3832H87.707ZM44.6706 31.7222H43.8306C43.7875 31.7222 43.7473 31.7377 43.7095 31.7693C43.6719 31.8008 43.6529 31.8407 43.6529 31.888V32.7079C43.6529 32.75 43.6719 32.7857 43.7095 32.8147C43.7473 32.8434 43.7875 32.858 43.8306 32.858H44.6706C44.7137 32.858 44.7553 32.8434 44.7958 32.8147C44.836 32.7857 44.8563 32.75 44.8563 32.7079V31.888C44.8563 31.8407 44.836 31.8008 44.7958 31.7693C44.7553 31.7377 44.7137 31.7222 44.6706 31.7222ZM46.1 30.9569C46.1646 30.9411 46.2104 30.9138 46.2373 30.8741C46.2643 30.835 46.2804 30.7913 46.2857 30.7442C46.2966 30.66 46.3033 30.5664 46.3059 30.4639C46.3086 30.3615 46.3127 30.2446 46.3182 30.113C46.3235 29.9815 46.3262 29.8305 46.3262 29.6595V29.0715C46.3262 28.8353 46.3249 28.5947 46.3223 28.3501C46.3194 28.1055 46.3127 27.8254 46.3019 27.51C46.2966 27.4679 46.279 27.4324 46.2496 27.4033C46.2197 27.3745 46.1699 27.3602 46.1 27.3602H44.9774C44.9237 27.3602 44.8818 27.3757 44.8524 27.4075C44.8225 27.439 44.8078 27.4733 44.8078 27.51C44.8131 27.6782 44.8158 27.8518 44.8158 28.0307V29.3796C44.8158 29.4897 44.7958 29.5557 44.7553 29.5767C44.7151 29.5978 44.6463 29.6082 44.5494 29.6082H44.202H42.4655H35.5199H34.8334V25.1279C34.8334 25.0752 34.8172 25.0345 34.785 25.0056C34.7527 24.9769 34.7123 24.9623 34.6638 24.9623H33.4928C33.4495 24.9623 33.4092 24.9769 33.3716 25.0056C33.3338 25.0345 33.3151 25.0752 33.3151 25.1279V30.4208C33.3151 30.6207 33.3095 30.831 33.2989 31.0518C33.2074 31.0676 33.1212 31.0766 33.0403 31.0794C32.9596 31.082 32.8816 31.0834 32.8062 31.0834C32.51 31.0834 32.2704 31.0429 32.0874 30.9613C31.9044 30.8797 31.763 30.7588 31.6633 30.5984C31.5636 30.438 31.4979 30.2392 31.4656 30.0028C31.4333 29.766 31.417 29.4953 31.417 29.1902C31.417 29.1166 31.4184 29.0298 31.4211 28.9301C31.4237 28.8301 31.4305 28.7302 31.4413 28.6302C31.4413 28.5303 31.39 28.4804 31.2879 28.4804H30.2864C30.2271 28.4804 30.1867 28.495 30.1652 28.5237C30.1438 28.5526 30.1276 28.5907 30.1168 28.638C30.1007 28.7382 30.0845 28.8471 30.0684 28.9654C30.0523 29.0839 30.0388 29.2008 30.028 29.3165C30.0171 29.4322 30.009 29.5402 30.0036 29.6399C29.9983 29.7397 29.9957 29.8239 29.9957 29.8923C29.9957 30.3921 30.0643 30.8086 30.2016 31.1426C30.3389 31.4766 30.5354 31.7461 30.7913 31.951C31.0468 32.1563 31.3537 32.3021 31.7119 32.3889C32.0698 32.4757 32.4669 32.519 32.903 32.519C33.2045 32.519 33.4995 32.5004 33.7875 32.4639C34.0755 32.427 34.3489 32.3797 34.6073 32.3219C34.7149 32.2955 34.7715 32.2325 34.7768 32.1328C34.8038 31.7906 34.8199 31.4331 34.8254 31.0596H35.4452C35.4452 31.0596 35.4466 31.0596 35.4474 31.0596H44.1282C44.1282 31.0596 44.1291 31.0596 44.1295 31.0596H44.4444C44.5789 31.0596 44.7272 31.0568 44.8885 31.0516C45.0501 31.0466 45.2076 31.0399 45.361 31.0319C45.5146 31.0239 45.6572 31.0135 45.7891 31.0006C45.9209 30.9872 46.0247 30.9728 46.1 30.9569ZM46.3828 31.7222H45.5428C45.4997 31.7222 45.4593 31.7377 45.4217 31.7693C45.3839 31.8008 45.3651 31.8407 45.3651 31.888V32.7079C45.3651 32.75 45.3839 32.7857 45.4217 32.8147C45.4593 32.8434 45.4997 32.858 45.5428 32.858H46.3828C46.4257 32.858 46.4661 32.8434 46.5039 32.8147C46.5415 32.7857 46.5605 32.75 46.5605 32.7079V31.888C46.5605 31.8407 46.5415 31.8008 46.5039 31.7693C46.4661 31.7377 46.4257 31.7222 46.3828 31.7222ZM53.4008 27.51C53.3957 27.4679 53.3782 27.4324 53.3485 27.4033C53.3189 27.3745 53.2691 27.3602 53.1992 27.3602H52.0765C52.0224 27.3602 51.981 27.3757 51.9513 27.4075C51.9217 27.439 51.907 27.4733 51.907 27.51C51.9123 27.6782 51.915 27.8518 51.915 28.0307V29.3796C51.915 29.4897 51.8947 29.5557 51.8545 29.5767C51.8141 29.5978 51.7454 29.6082 51.6486 29.6082H51.3011H49.4921H49.4919H49.2419C49.1181 29.6082 49.0278 29.5899 48.9713 29.5529C48.9149 29.5162 48.8865 29.4346 48.8865 29.3084V25.1277C48.8865 25.0804 48.8703 25.0409 48.8381 25.0094C48.8058 24.9779 48.7627 24.9621 48.709 24.9621H47.5459C47.4975 24.9621 47.4556 24.9779 47.4206 25.0094C47.3855 25.0409 47.3681 25.0804 47.3681 25.1277V29.7975C47.3681 30.0711 47.4031 30.2905 47.4731 30.4561C47.543 30.6217 47.64 30.7494 47.7638 30.8388C47.8878 30.9283 48.0357 30.9874 48.2081 31.0161C48.3803 31.0452 48.5688 31.0596 48.7735 31.0596H49.5651H51.2272C51.2276 31.0596 51.228 31.0596 51.2284 31.0596H51.5432C51.678 31.0596 51.8259 31.0568 51.9875 31.0516C52.1491 31.0466 52.3068 31.0399 52.4602 31.0319C52.6138 31.0239 52.7564 31.0135 52.8881 31.0006C53.0201 30.9872 53.1236 30.9728 53.1992 30.9569C53.2636 30.9411 53.3095 30.9138 53.3365 30.8741C53.3632 30.835 53.3796 30.7913 53.3849 30.7442C53.3957 30.66 53.4025 30.5664 53.4051 30.4639C53.4076 30.3615 53.4119 30.2446 53.4172 30.113C53.4225 29.9815 53.4251 29.8305 53.4251 29.6595V29.0715C53.4251 28.8353 53.4239 28.5947 53.4212 28.3501C53.4184 28.1055 53.4119 27.8254 53.4008 27.51ZM52.5208 31.7222H51.6404C51.5973 31.7222 51.5583 31.7377 51.5234 31.7693C51.4883 31.8008 51.4709 31.8407 51.4709 31.888V32.7079C51.4709 32.75 51.4883 32.7857 51.5234 32.8147C51.5583 32.8434 51.5973 32.858 51.6404 32.858H52.5208C52.5692 32.858 52.6123 32.8434 52.6497 32.8147C52.6875 32.7857 52.7065 32.75 52.7065 32.7079V31.888C52.7065 31.8407 52.6875 31.8008 52.6497 31.7693C52.6123 31.7377 52.5692 31.7222 52.5208 31.7222ZM64.8777 28.003C64.9745 28.2316 65.0231 28.5012 65.0231 28.8114V29.3241C65.0231 29.6501 64.9745 29.9276 64.8777 30.1562C64.7804 30.3851 64.6458 30.5732 64.4736 30.7205C64.3014 30.8675 64.0955 30.9754 63.8561 31.0436C63.6161 31.1119 63.351 31.1462 63.0605 31.1462C62.9365 31.1462 62.8086 31.1396 62.6769 31.1264C62.5449 31.1133 62.4154 31.0935 62.2892 31.0674C62.1627 31.0411 62.0455 31.0083 61.9376 30.9688C61.83 30.9291 61.7413 30.8809 61.6713 30.8228C61.5422 30.9124 61.398 30.974 61.2392 31.0083C61.0801 31.0425 60.8879 31.0594 60.6616 31.0594H60.5888H58.7798C58.7798 31.0594 58.7794 31.0594 58.7792 31.0594H58.1417V31.1659C58.1417 31.2262 58.139 31.2647 58.1335 31.2805C58.0904 31.6432 57.9991 31.9362 57.859 32.1599C57.7191 32.3831 57.5467 32.5583 57.3422 32.6844C57.1375 32.8107 56.9073 32.8945 56.6516 32.9368C56.3958 32.9787 56.136 33 55.8723 33H55.6543C55.5465 33 55.4309 32.9972 55.3071 32.992C55.1831 32.9866 55.066 32.9803 54.9555 32.9723C54.8452 32.9643 54.7684 32.9551 54.7255 32.9447C54.6446 32.9234 54.6042 32.8685 54.6042 32.7791V31.88C54.6042 31.78 54.6554 31.7302 54.7578 31.7302H55.5655C55.7752 31.7302 55.9491 31.7222 56.0864 31.7062C56.2236 31.6904 56.3354 31.6615 56.4216 31.6194C56.5076 31.5773 56.5694 31.5235 56.6072 31.4578C56.6448 31.3918 56.6691 31.3066 56.68 31.2015L56.6881 31.0594H56.3488C55.7027 31.0594 55.2019 30.9018 54.8466 30.5862C54.4912 30.2708 54.3135 29.8131 54.3135 29.2136V29.1033C54.3135 28.3984 54.5182 27.8635 54.9273 27.498C55.3365 27.1325 55.9395 26.9498 56.7363 26.9498C56.8387 26.9498 56.9545 26.9536 57.0838 26.9616C57.2131 26.9695 57.3381 26.9799 57.4592 26.9931C57.5806 27.0063 57.6907 27.0222 57.7904 27.0404C57.89 27.0589 57.964 27.0787 58.0126 27.0996C58.0716 27.1262 58.1121 27.1497 58.1335 27.1707C58.1552 27.1916 58.166 27.2233 58.166 27.2654V29.608H58.8524H60.5157C60.5157 29.608 60.5157 29.608 60.5159 29.608H60.7666C60.8309 29.608 60.8959 29.6016 60.9602 29.5883C61.025 29.5753 61.0654 29.5346 61.0815 29.4662C61.0867 29.4452 61.0909 29.4265 61.0936 29.4109C61.0961 29.3951 61.0977 29.374 61.0977 29.3477V28.8351C61.0977 28.5247 61.1473 28.254 61.2472 28.0225C61.3467 27.7913 61.484 27.5994 61.6588 27.4468C61.8339 27.2943 62.0426 27.1798 62.2849 27.1036C62.5269 27.0274 62.7907 26.9893 63.0764 26.9893C63.3622 26.9893 63.6227 27.026 63.8598 27.0996C64.0968 27.1734 64.3012 27.2852 64.4734 27.4348C64.6456 27.5848 64.7802 27.7742 64.8775 28.003H64.8777ZM56.7286 28.2276C56.6855 28.2224 56.6356 28.2197 56.5793 28.2197H56.4297C56.1875 28.2197 56.0057 28.2867 55.8847 28.4208C55.7634 28.5548 55.7029 28.7298 55.7029 28.9455V29.0165C55.7029 29.2268 55.7526 29.3872 55.8523 29.4977C55.9519 29.608 56.1147 29.6633 56.3409 29.6633H56.7286V28.2276ZM63.6096 28.8587C63.6096 28.6063 63.5612 28.4353 63.4643 28.3461C63.3671 28.2566 63.2325 28.2119 63.0605 28.2119C62.8885 28.2119 62.7523 28.258 62.6524 28.3499C62.5527 28.4421 62.5033 28.6117 62.5033 28.8587V29.19C62.5033 29.2321 62.5045 29.2742 62.5071 29.3161C62.5096 29.3584 62.5139 29.3977 62.5194 29.4344C62.5464 29.5873 62.6095 29.6882 62.7092 29.7383C62.8086 29.7884 62.9257 29.8131 63.0605 29.8131C63.2272 29.8131 63.3604 29.7698 63.4603 29.683C63.5599 29.5962 63.6096 29.4293 63.6096 29.1821V28.8587ZM69.3438 24.9619H68.1648C68.1106 24.9619 68.0679 24.9777 68.0353 25.0092C68.0032 25.0407 67.9871 25.0802 67.9871 25.1275V30.8858C67.9871 30.9331 68.0032 30.974 68.0353 31.0081C68.0679 31.0425 68.1106 31.0594 68.1648 31.0594H69.3438C69.3924 31.0594 69.4327 31.0425 69.465 31.0081C69.4974 30.974 69.5136 30.9331 69.5136 30.8858V25.1275C69.5136 25.0802 69.4974 25.0407 69.465 25.0092C69.4327 24.9777 69.3924 24.9619 69.3438 24.9619ZM72.4289 27.3995H71.274C71.2255 27.3995 71.1837 27.4152 71.1487 27.447C71.1136 27.4783 71.0962 27.5152 71.0962 27.5573V31.1542C71.0962 31.2962 71.0828 31.4066 71.0558 31.4854C71.0288 31.5644 70.9912 31.6236 70.9428 31.6629C70.8944 31.7024 70.835 31.7272 70.7651 31.7379C70.6951 31.7485 70.6197 31.7537 70.539 31.7537H70.3372C70.2293 31.7537 70.1756 31.8036 70.1756 31.9035V32.7949C70.1756 32.8895 70.216 32.9447 70.2967 32.9607C70.3343 32.9709 70.3842 32.9777 70.4461 32.9801C70.5079 32.9828 70.5713 32.9868 70.636 32.992C70.7006 32.9972 70.7596 33 70.8135 33H70.9349C71.2631 33 71.5538 32.9447 71.8071 32.8342C72.06 32.7239 72.2565 32.5266 72.3966 32.2429C72.4881 32.0428 72.5447 31.8351 72.5662 31.6194C72.5876 31.404 72.5984 31.1777 72.5984 30.9413V27.5573C72.5984 27.5152 72.5809 27.4783 72.5459 27.447C72.5108 27.4152 72.472 27.3995 72.4289 27.3995ZM79.1001 31.7222H78.2197C78.1766 31.7222 78.1376 31.7377 78.1027 31.7693C78.0675 31.8008 78.0502 31.8407 78.0502 31.888V32.7079C78.0502 32.75 78.0675 32.7857 78.1027 32.8147C78.1376 32.8434 78.1766 32.858 78.2197 32.858H79.1001C79.1485 32.858 79.1916 32.8434 79.2292 32.8147C79.2668 32.7857 79.2858 32.75 79.2858 32.7079V31.888C79.2858 31.8407 79.2668 31.8008 79.2292 31.7693C79.1916 31.7377 79.1485 31.7222 79.1001 31.7222ZM94.8488 31.7222H94.0089C93.9658 31.7222 93.9256 31.7377 93.8878 31.7693C93.8502 31.8008 93.8314 31.8407 93.8314 31.888V32.7079C93.8314 32.75 93.8502 32.7857 93.8878 32.8147C93.9256 32.8434 93.9658 32.858 94.0089 32.858H94.8488C94.8917 32.858 94.9324 32.8434 94.97 32.8147C95.0078 32.7857 95.0268 32.75 95.0268 32.7079V31.888C95.0268 31.8407 95.0078 31.8008 94.97 31.7693C94.9324 31.7377 94.8917 31.7222 94.8488 31.7222ZM93.1369 31.7222H92.2967C92.2536 31.7222 92.2132 31.7377 92.1758 31.7693C92.138 31.8008 92.119 31.8407 92.119 31.888V32.7079C92.119 32.75 92.138 32.7857 92.1758 32.8147C92.2132 32.8434 92.2536 32.858 92.2967 32.858H93.1369C93.18 32.858 93.2216 32.8434 93.2621 32.8147C93.3021 32.7857 93.3225 32.75 93.3225 32.7079V31.888C93.3225 31.8407 93.3021 31.8008 93.2621 31.7693C93.2216 31.7377 93.18 31.7222 93.1369 31.7222ZM98.9355 25.0094C98.9032 24.9779 98.8629 24.9621 98.8145 24.9621H97.6353C97.5867 24.9621 97.545 24.9779 97.5101 25.0094C97.4749 25.0409 97.4576 25.0802 97.4576 25.1277V29.3794C97.4576 29.4897 97.4373 29.5555 97.3971 29.5765C97.3567 29.5976 97.288 29.608 97.191 29.608H96.7631C96.7631 29.608 96.7624 29.608 96.7622 29.608H95.0266C95.0266 29.608 95.0257 29.608 95.0255 29.608H94.7845C94.7359 29.608 94.6724 29.604 94.5943 29.5962C94.5165 29.5883 94.4583 29.5713 94.4209 29.5448V27.5569C94.4209 27.5152 94.4033 27.4781 94.3684 27.4468C94.3335 27.415 94.2945 27.3993 94.2514 27.3993H93.0962C93.0425 27.3993 92.9994 27.415 92.9673 27.4468C92.9346 27.4781 92.9185 27.5152 92.9185 27.5569V29.3714C92.9185 29.4869 92.8864 29.5555 92.8219 29.5765C92.7571 29.5976 92.6816 29.608 92.5956 29.608H92.2967H90.5602H80.0692C80.0692 29.608 80.0684 29.608 80.0681 29.608H79.8269C79.7785 29.608 79.715 29.604 79.6371 29.5962C79.5591 29.5883 79.5011 29.5713 79.4635 29.5448V27.5569C79.4635 27.5152 79.4459 27.4781 79.411 27.4468C79.3761 27.415 79.3369 27.3993 79.294 27.3993H78.139C78.0851 27.3993 78.042 27.415 78.0097 27.4468C77.9775 27.4781 77.9611 27.5152 77.9611 27.5569V29.3714C77.9611 29.4869 77.929 29.5555 77.8645 29.5765C77.7995 29.5976 77.7242 29.608 77.6382 29.608H77.3393H75.5303H75.5301H75.2801C75.1561 29.608 75.066 29.5897 75.0094 29.5527C74.9528 29.516 74.9247 29.4344 74.9247 29.3082V25.1275C74.9247 25.0802 74.9085 25.0407 74.876 25.0092C74.844 24.9777 74.8007 24.9619 74.7469 24.9619H73.584C73.5356 24.9619 73.4938 24.9777 73.4588 25.0092C73.4237 25.0407 73.4063 25.0802 73.4063 25.1275V29.7973C73.4063 30.0709 73.4413 30.2903 73.5113 30.4559C73.581 30.6215 73.6782 30.7492 73.802 30.8386C73.926 30.9281 74.0739 30.9872 74.2461 31.0159C74.4185 31.045 74.607 31.0594 74.8117 31.0594H75.6032H77.2656C77.266 31.0594 77.2664 31.0594 77.2668 31.0594H77.4363C77.5387 31.0594 77.6474 31.0556 77.7636 31.0476C77.8792 31.0397 77.9936 31.0253 78.1066 31.004C78.2197 30.983 78.3272 30.9541 78.4295 30.9174C78.5316 30.8807 78.6236 30.836 78.7042 30.7831C78.8658 30.8988 79.0664 30.9738 79.3058 31.0079C79.5454 31.0425 79.7891 31.0594 80.0369 31.0594H80.1417H81.8057H92.223C92.223 31.0594 92.2238 31.0594 92.2242 31.0594H92.3937C92.4961 31.0594 92.6048 31.0556 92.7208 31.0476C92.8366 31.0397 92.9508 31.0253 93.0639 31.004C93.1773 30.983 93.2846 30.9541 93.3869 30.9174C93.4892 30.8807 93.5807 30.836 93.6618 30.7831C93.8232 30.8988 94.0236 30.9738 94.2632 31.0079C94.5028 31.0425 94.7465 31.0594 94.9941 31.0594H95.0995H96.8354H97.0296C97.164 31.0594 97.3148 31.057 97.4819 31.0516C97.6488 31.0464 97.8142 31.0399 97.9785 31.0319C98.1427 31.0239 98.2934 31.0135 98.4307 31.0004C98.5682 30.9874 98.6742 30.9728 98.7498 30.9569C98.8145 30.9413 98.8589 30.9136 98.8832 30.8743C98.9073 30.8348 98.9246 30.7913 98.9355 30.744C98.9518 30.5758 98.9638 30.4126 98.9718 30.255C98.98 30.097 98.9839 29.9314 98.9839 29.758V25.1277C98.9839 25.0802 98.9681 25.0409 98.9355 25.0094Z" fill="#0094F6"></path>
</svg><style>@media (prefers-color-scheme: light) { :root { filter: none; } }
@media (prefers-color-scheme: dark) { :root { filter: none; } }
</style></svg>